<svg width="23" height="19" viewBox="0 0 23 19" fill="none" xmlns="http://www.w3.org/2000/svg">
<path d="M3.025 14.8906V14.7406H2.875H2.15625H2.00625V14.8906V17.0469V17.1969H2.15625H2.875H3.025V17.0469V14.8906Z" fill="white" stroke="white" stroke-width="0.3"/>
<path d="M4.4625 14.8906V14.7406H4.3125H3.59375H3.44375V14.8906V15.6094V15.7594H3.59375H4.3125H4.4625V15.6094V14.8906Z" fill="white" stroke="white" stroke-width="0.3"/>
<path d="M4.4625 16.3281V16.1781H4.3125H3.59375H3.44375V16.3281V17.0469V17.1969H3.59375H4.3125H4.4625V17.0469V16.3281Z" fill="white" stroke="white" stroke-width="0.3"/>
<path d="M8.76964 6.31752C9.51197 6.61445 10.4817 6.775 11.5 6.775C12.5183 6.775 13.488 6.61445 14.2304 6.31752C15.071 5.98129 15.6031 5.46483 15.6031 4.82812C15.6031 4.19142 15.071 3.67496 14.2304 3.33873L14.1746 3.478L14.2304 3.33873C13.488 3.0418 12.5183 2.88125 11.5 2.88125C10.4817 2.88125 9.51197 3.0418 8.76964 3.33873C7.92903 3.67496 7.39687 4.19142 7.39687 4.82812C7.39687 5.46483 7.92903 5.98129 8.76964 6.31752ZM11.5 3.9C12.4722 3.9 13.2622 4.05735 13.8041 4.26434C14.0757 4.36809 14.2792 4.4821 14.4118 4.59038C14.5509 4.70401 14.5844 4.78783 14.5844 4.82812C14.5844 4.86842 14.5509 4.95224 14.4118 5.06587C14.2792 5.17415 14.0757 5.28816 13.8041 5.39191C13.2622 5.5989 12.4722 5.75625 11.5 5.75625C10.5278 5.75625 9.73783 5.5989 9.19593 5.39191C8.9243 5.28816 8.7208 5.17415 8.58823 5.06587C8.44912 4.95224 8.41562 4.86842 8.41562 4.82812C8.41562 4.78783 8.44912 4.70401 8.58823 4.59038C8.7208 4.4821 8.9243 4.36809 9.19593 4.26434C9.73783 4.05735 10.5278 3.9 11.5 3.9Z" fill="white" stroke="white" stroke-width="0.3"/>
<mask id="path-5-outside-1_1_5405" maskUnits="userSpaceOnUse" x="-0.28125" y="-0.484375" width="23" height="20" fill="black">
<rect fill="white" x="-0.28125" y="-0.484375" width="23" height="20"/>
<path d="M19.4062 8.42188H19.0469V4.82812C19.0469 3.63518 18.2331 2.53064 16.7555 1.71796C15.3458 0.942607 13.4793 0.515625 11.5 0.515625C9.52065 0.515625 7.65419 0.942383 6.2445 1.71796C4.76688 2.53064 3.95312 3.63518 3.95312 4.82812V9.85938C3.95312 11.0523 4.76688 12.1569 6.2445 12.9695C6.58435 13.1551 6.93675 13.3167 7.29913 13.4531H1.07812C0.982813 13.4531 0.891404 13.491 0.824008 13.5584C0.756613 13.6258 0.71875 13.7172 0.71875 13.8125V18.125C0.71875 18.2203 0.756613 18.3117 0.824008 18.3791C0.891404 18.4465 0.982813 18.4844 1.07812 18.4844H19.4062C20.1685 18.4835 20.8993 18.1803 21.4382 17.6414C21.9772 17.1024 22.2804 16.3716 22.2812 15.6094V11.2969C22.2804 10.5346 21.9772 9.80387 21.4382 9.26489C20.8993 8.72591 20.1685 8.42273 19.4062 8.42188ZM5.03125 17.7656H1.4375V14.1719H5.03125V17.7656ZM18.3281 8.42188H15.7009C16.0633 8.28545 16.4157 8.12386 16.7555 7.93829C17.4177 7.57411 17.9459 7.15112 18.3281 6.68803V8.42188ZM6.59089 2.34772C7.89623 1.62969 9.6397 1.23438 11.5 1.23438C13.3603 1.23438 15.1038 1.62969 16.4091 2.34772C17.6466 3.02837 18.3281 3.9092 18.3281 4.82812C18.3281 5.74705 17.6466 6.62788 16.4091 7.30853C15.1038 8.02656 13.3603 8.42188 11.5 8.42188C9.6397 8.42188 7.89623 8.02656 6.59089 7.30853C5.35338 6.62788 4.67188 5.74705 4.67188 4.82812C4.67188 3.9092 5.35338 3.02837 6.59089 2.34772ZM6.59089 12.3398C5.35338 11.6591 4.67188 10.7783 4.67188 9.85938V6.68789C5.05371 7.15099 5.58231 7.57397 6.2445 7.93816C6.4312 8.04085 6.62574 8.13731 6.82812 8.22754V9.85938H7.54688V8.51221C7.90047 8.63468 8.26036 8.73815 8.625 8.82217V9.85938H9.34375V8.96543C9.69517 9.02414 10.0554 9.06835 10.4219 9.09772V11.2969H11.1406V9.13586C11.2599 9.13886 11.3797 9.14045 11.5 9.14062H12.2188V9.85938H12.9375V9.14062H14.0156V9.85938H14.7344V9.14062H15.8125V11.2969H16.5312V9.14062H17.6094V9.85938H18.3281V9.14062H19.4062V9.85938H20.125V9.26425C20.6043 9.43395 21.0083 9.7676 21.2655 10.2063C21.5227 10.6449 21.6166 11.1604 21.5306 11.6615C21.4446 12.1627 21.1842 12.6174 20.7955 12.9452C20.4068 13.273 19.9147 13.4529 19.4062 13.4531H11.5C9.6397 13.4531 7.89623 13.0578 6.59089 12.3398ZM21.5625 15.6094C21.5618 16.181 21.3345 16.7291 20.9302 17.1334C20.526 17.5376 19.9779 17.765 19.4062 17.7656H5.75V14.1719H6.82812V14.8906H7.54688V14.1719H8.625V14.8906H9.34375V14.1719H10.4219V16.3281H11.1406V14.1719H12.2188V14.8906H12.9375V14.1719H14.0156V14.8906H14.7344V14.1719H15.8125V16.3281H16.5312V14.1719H17.6094V14.8906H18.3281V14.1719H19.4062V14.8906H20.125V14.0809C20.6819 13.9361 21.1826 13.6277 21.5625 13.1955V15.6094Z"/>
</mask>
<path d="M19.4062 8.42188H19.0469V4.82812C19.0469 3.63518 18.2331 2.53064 16.7555 1.71796C15.3458 0.942607 13.4793 0.515625 11.5 0.515625C9.52065 0.515625 7.65419 0.942383 6.2445 1.71796C4.76688 2.53064 3.95312 3.63518 3.95312 4.82812V9.85938C3.95312 11.0523 4.76688 12.1569 6.2445 12.9695C6.58435 13.1551 6.93675 13.3167 7.29913 13.4531H1.07812C0.982813 13.4531 0.891404 13.491 0.824008 13.5584C0.756613 13.6258 0.71875 13.7172 0.71875 13.8125V18.125C0.71875 18.2203 0.756613 18.3117 0.824008 18.3791C0.891404 18.4465 0.982813 18.4844 1.07812 18.4844H19.4062C20.1685 18.4835 20.8993 18.1803 21.4382 17.6414C21.9772 17.1024 22.2804 16.3716 22.2812 15.6094V11.2969C22.2804 10.5346 21.9772 9.80387 21.4382 9.26489C20.8993 8.72591 20.1685 8.42273 19.4062 8.42188ZM5.03125 17.7656H1.4375V14.1719H5.03125V17.7656ZM18.3281 8.42188H15.7009C16.0633 8.28545 16.4157 8.12386 16.7555 7.93829C17.4177 7.57411 17.9459 7.15112 18.3281 6.68803V8.42188ZM6.59089 2.34772C7.89623 1.62969 9.6397 1.23438 11.5 1.23438C13.3603 1.23438 15.1038 1.62969 16.4091 2.34772C17.6466 3.02837 18.3281 3.9092 18.3281 4.82812C18.3281 5.74705 17.6466 6.62788 16.4091 7.30853C15.1038 8.02656 13.3603 8.42188 11.5 8.42188C9.6397 8.42188 7.89623 8.02656 6.59089 7.30853C5.35338 6.62788 4.67188 5.74705 4.67188 4.82812C4.67188 3.9092 5.35338 3.02837 6.59089 2.34772ZM6.59089 12.3398C5.35338 11.6591 4.67188 10.7783 4.67188 9.85938V6.68789C5.05371 7.15099 5.58231 7.57397 6.2445 7.93816C6.4312 8.04085 6.62574 8.13731 6.82812 8.22754V9.85938H7.54688V8.51221C7.90047 8.63468 8.26036 8.73815 8.625 8.82217V9.85938H9.34375V8.96543C9.69517 9.02414 10.0554 9.06835 10.4219 9.09772V11.2969H11.1406V9.13586C11.2599 9.13886 11.3797 9.14045 11.5 9.14062H12.2188V9.85938H12.9375V9.14062H14.0156V9.85938H14.7344V9.14062H15.8125V11.2969H16.5312V9.14062H17.6094V9.85938H18.3281V9.14062H19.4062V9.85938H20.125V9.26425C20.6043 9.43395 21.0083 9.7676 21.2655 10.2063C21.5227 10.6449 21.6166 11.1604 21.5306 11.6615C21.4446 12.1627 21.1842 12.6174 20.7955 12.9452C20.4068 13.273 19.9147 13.4529 19.4062 13.4531H11.5C9.6397 13.4531 7.89623 13.0578 6.59089 12.3398ZM21.5625 15.6094C21.5618 16.181 21.3345 16.7291 20.9302 17.1334C20.526 17.5376 19.9779 17.765 19.4062 17.7656H5.75V14.1719H6.82812V14.8906H7.54688V14.1719H8.625V14.8906H9.34375V14.1719H10.4219V16.3281H11.1406V14.1719H12.2188V14.8906H12.9375V14.1719H14.0156V14.8906H14.7344V14.1719H15.8125V16.3281H16.5312V14.1719H17.6094V14.8906H18.3281V14.1719H19.4062V14.8906H20.125V14.0809C20.6819 13.9361 21.1826 13.6277 21.5625 13.1955V15.6094Z" fill="white"/>
<path d="M19.4062 8.42188H19.0469V4.82812C19.0469 3.63518 18.2331 2.53064 16.7555 1.71796C15.3458 0.942607 13.4793 0.515625 11.5 0.515625C9.52065 0.515625 7.65419 0.942383 6.2445 1.71796C4.76688 2.53064 3.95312 3.63518 3.95312 4.82812V9.85938C3.95312 11.0523 4.76688 12.1569 6.2445 12.9695C6.58435 13.1551 6.93675 13.3167 7.29913 13.4531H1.07812C0.982813 13.4531 0.891404 13.491 0.824008 13.5584C0.756613 13.6258 0.71875 13.7172 0.71875 13.8125V18.125C0.71875 18.2203 0.756613 18.3117 0.824008 18.3791C0.891404 18.4465 0.982813 18.4844 1.07812 18.4844H19.4062C20.1685 18.4835 20.8993 18.1803 21.4382 17.6414C21.9772 17.1024 22.2804 16.3716 22.2812 15.6094V11.2969C22.2804 10.5346 21.9772 9.80387 21.4382 9.26489C20.8993 8.72591 20.1685 8.42273 19.4062 8.42188ZM5.03125 17.7656H1.4375V14.1719H5.03125V17.7656ZM18.3281 8.42188H15.7009C16.0633 8.28545 16.4157 8.12386 16.7555 7.93829C17.4177 7.57411 17.9459 7.15112 18.3281 6.68803V8.42188ZM6.59089 2.34772C7.89623 1.62969 9.6397 1.23438 11.5 1.23438C13.3603 1.23438 15.1038 1.62969 16.4091 2.34772C17.6466 3.02837 18.3281 3.9092 18.3281 4.82812C18.3281 5.74705 17.6466 6.62788 16.4091 7.30853C15.1038 8.02656 13.3603 8.42188 11.5 8.42188C9.6397 8.42188 7.89623 8.02656 6.59089 7.30853C5.35338 6.62788 4.67188 5.74705 4.67188 4.82812C4.67188 3.9092 5.35338 3.02837 6.59089 2.34772ZM6.59089 12.3398C5.35338 11.6591 4.67188 10.7783 4.67188 9.85938V6.68789C5.05371 7.15099 5.58231 7.57397 6.2445 7.93816C6.4312 8.04085 6.62574 8.13731 6.82812 8.22754V9.85938H7.54688V8.51221C7.90047 8.63468 8.26036 8.73815 8.625 8.82217V9.85938H9.34375V8.96543C9.69517 9.02414 10.0554 9.06835 10.4219 9.09772V11.2969H11.1406V9.13586C11.2599 9.13886 11.3797 9.14045 11.5 9.14062H12.2188V9.85938H12.9375V9.14062H14.0156V9.85938H14.7344V9.14062H15.8125V11.2969H16.5312V9.14062H17.6094V9.85938H18.3281V9.14062H19.4062V9.85938H20.125V9.26425C20.6043 9.43395 21.0083 9.7676 21.2655 10.2063C21.5227 10.6449 21.6166 11.1604 21.5306 11.6615C21.4446 12.1627 21.1842 12.6174 20.7955 12.9452C20.4068 13.273 19.9147 13.4529 19.4062 13.4531H11.5C9.6397 13.4531 7.89623 13.0578 6.59089 12.3398ZM21.5625 15.6094C21.5618 16.181 21.3345 16.7291 20.9302 17.1334C20.526 17.5376 19.9779 17.765 19.4062 17.7656H5.75V14.1719H6.82812V14.8906H7.54688V14.1719H8.625V14.8906H9.34375V14.1719H10.4219V16.3281H11.1406V14.1719H12.2188V14.8906H12.9375V14.1719H14.0156V14.8906H14.7344V14.1719H15.8125V16.3281H16.5312V14.1719H17.6094V14.8906H18.3281V14.1719H19.4062V14.8906H20.125V14.0809C20.6819 13.9361 21.1826 13.6277 21.5625 13.1955V15.6094Z" stroke="white" stroke-width="0.6" mask="url(#path-5-outside-1_1_5405)"/>
</svg>
