<svg width="17" height="11" viewBox="0 0 17 11" fill="none" xmlns="http://www.w3.org/2000/svg">
<path d="M15.9811 5.84124C15.9568 5.4905 15.9077 5.1079 15.8353 4.70388C15.7622 4.29683 15.6682 3.91204 15.5556 3.56034C15.4391 3.19683 15.281 2.83785 15.0853 2.49384C14.8825 2.13678 14.6441 1.82587 14.3766 1.57002C14.0968 1.30237 13.7543 1.08717 13.3583 0.930207C12.9636 0.774063 12.5262 0.694962 12.0583 0.694962C11.8746 0.694962 11.6969 0.770355 11.3537 0.99379C11.1425 1.13153 10.8954 1.29083 10.6197 1.46703C10.3839 1.61726 10.0644 1.75803 9.66989 1.88547C9.28495 2.01003 8.89411 2.0732 8.50822 2.0732C8.1226 2.0732 7.73176 2.01003 7.34655 1.88547C6.95241 1.75816 6.63284 1.6174 6.39746 1.46716C6.12431 1.29262 5.87712 1.13332 5.66275 0.993653C5.31984 0.770218 5.14213 0.694824 4.95839 0.694824C4.49037 0.694824 4.05311 0.774063 3.65856 0.930344C3.26278 1.08704 2.92014 1.30223 2.64013 1.57016C2.37261 1.82614 2.1342 2.13692 1.93151 2.49384C1.73609 2.83785 1.57788 3.19669 1.46143 3.56047C1.34895 3.91217 1.25488 4.29683 1.18182 4.70388C1.10931 5.10735 1.06029 5.49009 1.03598 5.84165C1.01208 6.18539 1 6.54313 1 6.90458C1 7.84419 1.29869 8.60485 1.8877 9.16584C2.46943 9.71942 3.23902 10.0001 4.1752 10.0001H12.8423C13.7782 10.0001 14.5478 9.71942 15.1297 9.16584C15.7188 8.60526 16.0175 7.84432 16.0175 6.90444C16.0174 6.54175 16.0052 6.18401 15.9811 5.84124ZM14.4024 8.40161C14.018 8.76745 13.5077 8.94529 12.8422 8.94529H4.1752C3.50956 8.94529 2.99924 8.76745 2.615 8.40174C2.23803 8.0429 2.05483 7.55305 2.05483 6.90458C2.05483 6.5673 2.06595 6.23427 2.0882 5.91457C2.1099 5.60091 2.15425 5.25635 2.22004 4.89023C2.28499 4.52865 2.36766 4.1893 2.46599 3.8821C2.56034 3.58753 2.68902 3.29584 2.84859 3.01486C3.00089 2.74707 3.17612 2.51732 3.36948 2.3322C3.55035 2.15903 3.77831 2.01731 4.04693 1.91101C4.29536 1.81268 4.57455 1.75885 4.87764 1.75075C4.91458 1.77039 4.98036 1.80788 5.08693 1.87737C5.30377 2.01868 5.55371 2.1799 5.83002 2.35637C6.14148 2.55495 6.54276 2.7343 7.02217 2.88907C7.5123 3.04755 8.01218 3.12802 8.50835 3.12802C9.00453 3.12802 9.50454 3.04755 9.9944 2.88921C10.4742 2.73416 10.8754 2.55495 11.1872 2.3561C11.47 2.17537 11.7129 2.01882 11.9298 1.87737C12.0363 1.80802 12.1021 1.77039 12.1391 1.75075C12.4423 1.75885 12.7215 1.81268 12.9701 1.91101C13.2385 2.01731 13.4665 2.15917 13.6474 2.3322C13.8407 2.51718 14.016 2.74694 14.1683 3.015C14.328 3.29584 14.4568 3.58767 14.551 3.88196C14.6495 4.18958 14.7323 4.52878 14.7971 4.8901C14.8627 5.2569 14.9072 5.6016 14.9289 5.91471C14.9513 6.23318 14.9626 6.56634 14.9627 6.90458C14.9626 7.55318 14.7794 8.0429 14.4024 8.40161Z" fill="#00B15D" stroke="#00B15D" stroke-width="0.6"/>
</svg>
