<svg width="21" height="21" viewBox="0 0 21 21" fill="none" xmlns="http://www.w3.org/2000/svg">
<g clip-path="url(#clip0_1_5389)">
<path d="M18.8179 5.44886L18.8179 5.44881L18.8146 5.44532L13.6409 0.0180035C13.5188 -0.110622 13.3484 -0.191016 13.167 -0.191016H4.97488C3.38074 -0.191016 2.06545 1.11859 2.06545 2.71328V18.2046C2.06545 19.7994 3.38074 21.109 4.97488 21.109H16.0937C17.6878 21.109 19.0031 19.7994 19.0031 18.2046V5.90386C19.0031 5.72647 18.9222 5.56559 18.8179 5.44886ZM13.8292 4.17928V2.12451L16.7937 5.23652H14.8915C14.304 5.23652 13.8292 4.76515 13.8292 4.17928ZM16.0937 19.7945H4.97488C4.10839 19.7945 3.37995 19.0746 3.37995 18.2046V2.71328C3.37995 1.84793 4.10382 1.12348 4.97488 1.12348H12.5147V4.17928C12.5147 5.49512 13.5766 6.55101 14.8915 6.55101H17.6886V18.2046C17.6886 19.0749 16.965 19.7945 16.0937 19.7945Z" fill="white" stroke="white" stroke-width="0.3"/>
<path d="M14.7087 16.2948H6.35947C5.99772 16.2948 5.70222 16.5901 5.70222 16.9521C5.70222 17.3139 5.99769 17.6093 6.35947 17.6093H14.7139C15.0756 17.6093 15.3711 17.3139 15.3711 16.9521C15.3711 16.5891 15.0746 16.2948 14.7087 16.2948Z" fill="white" stroke="white" stroke-width="0.3"/>
<path d="M10.0535 14.7257L10.0535 14.7257L10.0546 14.7269C10.1774 14.856 10.3478 14.9359 10.5336 14.9359C10.7195 14.9359 10.8899 14.8561 11.0126 14.7268L11.0127 14.7268L11.0136 14.7258L13.9852 11.5363C13.9853 11.5361 13.9855 11.5359 13.9857 11.5357C14.2365 11.271 14.2156 10.8514 13.9536 10.6083C13.6888 10.3576 13.269 10.3784 13.026 10.641C13.0259 10.6411 13.0258 10.6412 13.0257 10.6413L11.1909 12.6093V7.4511C11.1909 7.08912 10.8954 6.79385 10.5336 6.79385C10.1719 6.79385 9.87635 7.08912 9.87635 7.4511V12.6086L8.04631 10.6409L8.04632 10.6409L8.04521 10.6398C7.79808 10.3797 7.3836 10.3566 7.11794 10.609C6.85807 10.856 6.8348 11.27 7.08662 11.5357L10.0535 14.7257Z" fill="white" stroke="white" stroke-width="0.3"/>
</g>
<defs>
<clipPath id="clip0_1_5389">
<rect width="21" height="21" fill="white"/>
</clipPath>
</defs>
</svg>
