<svg width="22" height="22" viewBox="0 0 22 22" fill="none" xmlns="http://www.w3.org/2000/svg">
<path d="M19.4225 5.82188C18.5559 5.82188 17.8538 6.52412 17.8538 7.39062V7.39375V7.39707V7.40059V7.4043V7.40821V7.41232V7.41662V7.42112V7.4258V7.43068V7.43576V7.44102V7.44647V7.45211V7.45794V7.46396V7.47017V7.47656V7.48313V7.48989V7.49684V7.50397V7.51127V7.51876V7.52644V7.53429V7.54232V7.55052V7.55891V7.56747V7.57621V7.58512V7.59421V7.60347V7.6129V7.6225V7.63228V7.64223V7.65234V7.66263V7.67308V7.6837V7.69448V7.70543V7.71655V7.72783V7.73927V7.75088V7.76265V7.77458V7.78666V7.79891V7.81132V7.82388V7.8366V7.84948V7.86251V7.8757V7.88904V7.90253V7.91618V7.92998V7.94393V7.95803V7.97227V7.98667V8.00121V8.0159V8.03074V8.04572V8.06084V8.07611V8.09152V8.10708V8.12277V8.13861V8.15458V8.1707V8.18695V8.20334V8.21987V8.23653V8.25332V8.27026V8.28732V8.30452V8.32185V8.3393V8.35689V8.37461V8.39246V8.41044V8.42854V8.44677V8.46513V8.48361V8.50221V8.52094V8.53979V8.55876V8.57785V8.59706V8.61639V8.63584V8.65541V8.67509V8.69489V8.71481V8.73484V8.75498V8.77524V8.79561V8.81609V8.83668V8.85738V8.87819V8.89911V8.92013V8.94126V8.9625V8.98385V9.00529V9.02684V9.0485V9.07025V9.09211V9.11407V9.13613V9.15828V9.18054V9.20289V9.22533V9.24788V9.27052V9.29325V9.31607V9.33899V9.362V9.3851V9.40829V9.43157V9.45494V9.4784V9.50195V9.52558V9.54929V9.57309V9.59698V9.62094V9.64499V9.66913V9.69334V9.71763V9.742V9.76645V9.79098V9.81558V9.84026V9.86502V9.88985V9.91475V9.93973V9.96478V9.9899V10.0151V10.0403V10.0657V10.0911V10.1165V10.1421V10.1677V10.1933V10.2191V10.2449V10.2707V10.2966V10.3226V10.3486V10.3747V10.4009V10.4271V10.4534V10.4797V10.5061V10.5325V10.559V10.5855V10.6121V10.6388V10.6655V10.6922V10.719V10.7459V10.7728V10.7997V10.8267V10.8537V10.8808V10.9079V10.9351V10.9623V10.9896V11.0169V11.0442V11.0716V11.099V11.1264V11.1539V11.1814V11.209V11.2366V11.2642V11.2918V11.3195V11.3472V11.375V11.4028V11.4306V11.4584V11.4863V11.5141V11.5421V11.57V11.598V11.626V11.654V11.682V11.71V11.7381V11.7662V11.7943V11.8224V11.8506V11.8788V11.9069V11.9351V11.9633V11.9916V12.0198V12.048V12.0763V12.1046V12.1328V12.1611V12.1894V12.2177V12.246V12.2743V12.3026V12.3309V12.3593V12.3876V12.4159V12.4442V12.4726V12.5009V12.5292V12.5575V12.5858V12.6142V12.6425V12.6708V12.6991V12.7273V12.7556V12.7839V12.8122V12.8404V12.8687V12.8969V12.9251V12.9533V12.9815V13.0097V13.0378V13.066V13.0941V13.1222V13.1503V13.1783V13.2064V13.2344V13.2624V13.2904V13.3183V13.3463V13.3742V13.4021V13.4299V13.4577V13.4855V13.5133V13.541V13.5688V13.5964V13.6241V13.6517V13.6793V13.7068V13.7343V13.7618V13.7892V13.8166V13.844V13.8713V13.8986V13.9258V13.953V13.9801V14.0072V14.0343V14.0613V14.0883V14.1152V14.1421V14.1689V14.1957V14.2225V14.2491V14.2758V14.3024V14.3289V14.3554V14.3818V14.4081V14.4344V14.4607V14.4869V14.513V14.5391V14.5651V14.5911V14.617V14.6428V14.6686V14.6943V14.7199V14.7455V14.771V14.7965V14.8218V14.8471V14.8724V14.8975V14.9226V14.9477V14.9726V14.9975V15.0223V15.047V15.0717V15.0963V15.1208V15.1452V15.1695V15.1938V15.218V15.2421V15.2661V15.2901V15.3139V15.3377V15.3614V15.385V15.4085V15.4319V15.4553V15.4785V15.5017V15.5248V15.5477V15.5706V15.5934V15.6161V15.6387V15.6612V15.6837V15.706V15.7282V15.7503V15.7724V15.7943V15.8161V15.8378V15.8594V15.881V15.9024V15.9237V15.9449V15.966V15.987V16.0079V16.0286V16.0493V16.0699V16.0903V16.1106V16.1309V16.151V16.171V16.1908V16.2106V16.2302V16.2498V16.2692V16.2885V16.3076V16.3267V16.3456V16.3644V16.3831V16.4017V16.4201V16.4384V16.4566V16.4747V16.4926V16.5104V16.5281V16.5457V16.5631V16.5804V16.5975V16.6145V16.6314V16.6482V16.6648V16.6813V16.6976V16.7138V16.7299V16.7458V16.7616V16.7773V16.7928V16.8081V16.8234V16.8384V16.8534V16.8682V16.8828V16.8973V16.9117V16.9259V16.9399V16.9538V16.9676V16.9811V16.9946V17.0079V17.021V17.034V17.0468V17.0595V17.072V17.0844V17.0966V17.1086V17.1205V17.1322V17.1437V17.1551V17.1664V17.1774V17.1883V17.1895C18.5109 16.727 19.3368 16.5785 20.1398 16.7861C20.1398 16.7861 20.1398 16.7861 20.1399 16.7861L20.1023 16.9314C20.4266 17.015 20.7284 17.1655 20.9913 17.3663L19.4225 5.82188ZM19.4225 5.82188C20.2874 5.82188 20.9913 6.52581 20.9913 7.39062V17.1805L19.4225 5.82188ZM-0.149341 7.39062L-0.149974 13.2887C-0.179376 13.3044 -0.208077 13.328 -0.228736 13.3625C-0.288734 13.4624 -0.237216 13.5592 -0.195053 13.6013C-0.183537 13.6128 -0.167951 13.625 -0.149341 13.6355V19.4219C-0.149341 20.9895 1.20139 22.15 2.70131 22.15H19.4225C20.927 22.15 22.1507 20.9264 22.1507 19.4219V7.39062C22.1507 5.88612 20.927 4.6625 19.4225 4.6625C17.9155 4.6625 16.6944 5.88326 16.6944 7.39062V8.1H13.9973C14.4532 7.30349 14.8034 6.59724 15.0452 5.98486C15.3088 5.31732 15.4475 4.75138 15.4475 4.29688C15.4475 1.84471 13.4528 -0.15 11.0007 -0.15C8.5485 -0.15 6.55378 1.84471 6.55378 4.29688C6.55378 4.75138 6.69256 5.31736 6.95612 5.98492C7.19791 6.59732 7.54812 7.30356 8.00399 8.1H8.00374H7.9987H7.99362H7.98851H7.98337H7.97819H7.97298H7.96774H7.96246H7.95715H7.95181H7.94643H7.94103H7.93559H7.93011H7.92461H7.91907H7.91351H7.90791H7.90228H7.89662H7.89093H7.8852H7.87945H7.87367H7.86786H7.86202H7.85614H7.85024H7.84431H7.83835H7.83237H7.82635H7.8203H7.81423H7.80813H7.802H7.79584H7.78966H7.78345H7.77721H7.77094H7.76465H7.75833H7.75199H7.74562H7.73922H7.7328H7.72635H7.71987H7.71338H7.70685H7.7003H7.69373H7.68713H7.68051H7.67386H7.66719H7.6605H7.65378H7.64704H7.64028H7.63349H7.62668H7.61985H7.613H7.60612H7.59922H7.5923H7.58536H7.5784H7.57141H7.56441H7.55738H7.55034H7.54327H7.53618H7.52907H7.52195H7.5148H7.50763H7.50045H7.49324H7.48602H7.47878H7.47152H7.46424H7.45694H7.44963H7.44229H7.43494H7.42758H7.42019H7.41279H7.40537H7.39794H7.39048H7.38302H7.37553H7.36803H7.36052H7.35299H7.34544H7.33788H7.3303H7.32271H7.3151H7.30749H7.29985H7.2922H7.28454H7.27687H7.26918H7.26148H7.25376H7.24603H7.23829H7.23054H7.22278H7.215H7.20721H7.19941H7.1916H7.18378H7.17594H7.1681H7.16024H7.15237H7.1445H7.13661H7.12871H7.12081H7.11289H7.10497H7.09703H7.08909H7.08114H7.07317H7.06521H7.05723H7.04924H7.04125H7.03325H7.02524H7.01722H7.0092H7.00117H6.99313H6.98509H6.97704H6.96899H6.96092H6.95286H6.94478H6.93671H6.92862H6.92053H6.91244H6.90434H6.89624H6.88814H6.88002H6.87191H6.86379H6.85567H6.84755H6.83942H6.83129H6.82316H6.81502H6.80688H6.79874H6.7906H6.78245H6.77431H6.76616H6.75801H6.74987H6.74172H6.73357H6.72541H6.71726H6.70911H6.70096H6.69281H6.68466H6.67651H6.66836H6.66022H6.65207H6.64393H6.63578H6.62764H6.6195H6.61137H6.60323H6.5951H6.58697H6.57885H6.57072H6.56261H6.55449H6.54638H6.53827H6.53017H6.52207H6.51397H6.50588H6.4978H6.48972H6.48164H6.47357H6.46551H6.45745H6.4494H6.44136H6.43332H6.42529H6.41726H6.40924H6.40123H6.39323H6.38523H6.37724H6.36926H6.36129H6.35333H6.34537H6.33743H6.32949H6.32156H6.31364H6.30573H6.29783H6.28994H6.28206H6.27419H6.26633H6.25848H6.25064H6.24282H6.235H6.2272H6.21941H6.21162H6.20386H6.1961H6.18835H6.18062H6.1729H6.1652H6.1575H6.14983H6.14216H6.13451H6.12687H6.11924H6.11163H6.10404H6.09646H6.08889H6.08134H6.0738H6.06628H6.05878H6.05129H6.04381H6.03636H6.02891H6.02149H6.01408H6.00669H5.99932H5.99196H5.98462H5.9773H5.97H5.96271H5.95545H5.9482H5.94097H5.93376H5.92657H5.91939H5.91224H5.90511H5.89799H5.8909H5.88383H5.87677H5.86974H5.86273H5.85574H5.84877H5.84182H5.83489H5.82799H5.8211H5.81424H5.8074H5.80058H5.79379H5.78702H5.78027H5.77355H5.76684H5.76017H5.75351H5.74688H5.74028H5.73369H5.72714H5.7206H5.7141H5.70761H5.70116H5.69473H5.68832H5.68194H5.67559H5.66926H5.66296H5.65668H5.65043H5.64421H5.63802H5.63185H5.62572H5.61961H5.61352H5.60747H5.60144H5.59544H5.58948H5.58354H5.57762H5.57174H5.56589H5.56007H5.55428H5.54851H5.54278H5.53708H5.53141H5.52577H5.52016H5.51458H5.50904H5.50352H5.49804H5.49259H5.48717H5.48178H5.47643H5.47111H5.46582H5.46056H5.45534H5.45015H5.445H5.43988H5.43479H5.42974H5.42472H5.41974H5.41479H5.40988H5.405H5.40016H5.39535H5.39058H5.38584H5.38114H5.37648H5.37186H5.36727H5.36271H5.3582H5.35372H5.34928H5.34488H5.34051H5.33618H5.3319H5.32765H5.32343H5.31926H5.31513H5.31103H5.30698H5.30691V7.39062C5.30691 5.88612 4.08329 4.6625 2.57878 4.6625C1.07178 4.6625 -0.149332 5.88325 -0.149341 7.39061C-0.149341 7.39061 -0.149341 7.39062 -0.149341 7.39062ZM4.14753 7.39062V17.191C3.70362 16.8779 3.16218 16.6938 2.57878 16.6938C1.99517 16.6938 1.45394 16.8782 1.01003 17.1914V13.2344C1.01003 13.2263 1.00982 13.2121 1.00941 13.1924L1.01003 7.39064V7.39062C1.01003 6.52412 1.71213 5.82188 2.57878 5.82188C3.4436 5.82188 4.14753 6.52581 4.14753 7.39062ZM10.536 11.9483L10.5365 11.949C10.6461 12.0952 10.8179 12.1812 11.0007 12.1812C11.1834 12.1812 11.3553 12.0952 11.4648 11.949L11.4653 11.9483L11.4655 11.948L11.4662 11.9471L11.4687 11.9438L11.4775 11.9318L11.5102 11.8876C11.5384 11.8493 11.5792 11.7938 11.6307 11.7228C11.7338 11.5809 11.88 11.3774 12.0553 11.1274C12.3948 10.6432 12.8437 9.98386 13.2994 9.25937H16.6944V13.2562H11.4044C10.1605 12.0718 7.99995 10.014 7.20777 9.25937H8.70196C9.15772 9.98386 9.60664 10.6432 9.94612 11.1274C10.1214 11.3774 10.2676 11.5809 10.3706 11.7228C10.4222 11.7938 10.4629 11.8493 10.4911 11.8876L10.5238 11.9318L10.5326 11.9438L10.5351 11.9471L10.5358 11.948L10.536 11.9483ZM10.541 16.8339L10.541 16.8339C10.656 16.7243 10.721 16.5726 10.721 16.4141C10.721 16.2556 10.656 16.1036 10.5409 15.9942L5.30691 11.0094V9.25937H5.52659C6.02253 9.73175 10.5787 14.071 10.7729 14.2558C10.8806 14.3583 11.0237 14.4156 11.1725 14.4156H16.6944V15.8344H13.5788C13.425 15.8344 13.2776 15.8955 13.1689 16.0042L8.18232 20.9906H6.17644L10.541 16.8339ZM11.0007 1.00937C12.8133 1.00937 14.2882 2.48423 14.2882 4.29688C14.2882 4.66398 14.1413 5.17036 13.8924 5.75724C13.6455 6.33963 13.3055 6.98469 12.935 7.62333C12.2555 8.79448 11.479 9.9347 11.0007 10.6115C10.517 9.92666 9.7396 8.78213 9.061 7.61028C8.69138 6.97199 8.3527 6.32838 8.10686 5.74823C7.8591 5.16355 7.71316 4.6603 7.71316 4.29688C7.71316 2.48423 9.18801 1.00937 11.0007 1.00937ZM1.01003 19.4219C1.01003 18.5571 1.71396 17.8531 2.57878 17.8531C3.4436 17.8531 4.14753 18.5571 4.14753 19.4219C4.14753 19.7421 4.40704 20.0016 4.72722 20.0016C5.0474 20.0016 5.30691 19.7421 5.30691 19.4219V12.6104L9.30074 16.4141L4.49535 20.9906H2.70131C1.8048 20.9906 1.01003 20.3226 1.01003 19.4219ZM19.4225 20.9906H9.82213L13.819 16.9937H16.6944V19.4219C16.6944 19.7421 16.9539 20.0016 17.2741 20.0016C17.5943 20.0016 17.8538 19.7421 17.8538 19.4219C17.8538 18.4084 18.8021 17.638 19.85 17.9086C20.4832 18.0722 20.9913 18.6582 20.9913 19.4219C20.9913 20.2867 20.2874 20.9906 19.4225 20.9906Z" fill="white" stroke="white" stroke-width="0.3"/>
<path d="M11 6.59531C12.2675 6.59531 13.2984 5.56438 13.2984 4.29688C13.2984 3.02937 12.2675 1.99844 11 1.99844C9.7325 1.99844 8.70156 3.02937 8.70156 4.29688C8.70156 5.56438 9.7325 6.59531 11 6.59531ZM11 3.15781C11.628 3.15781 12.1391 3.66889 12.1391 4.29688C12.1391 4.92486 11.628 5.43594 11 5.43594C10.372 5.43594 9.86094 4.92486 9.86094 4.29688C9.86094 3.66889 10.372 3.15781 11 3.15781Z" fill="white" stroke="white" stroke-width="0.3"/>
<path d="M0.429688 12.0953C0.749698 12.0953 1.00937 11.8356 1.00937 11.5156C1.00937 11.1956 0.749698 10.9359 0.429688 10.9359C0.109677 10.9359 -0.15 11.1956 -0.15 11.5156C-0.15 11.8356 0.109677 12.0953 0.429688 12.0953Z" fill="white" stroke="white" stroke-width="0.3"/>
</svg>
