<svg width="250" height="55" viewBox="0 0 250 55" fill="none" xmlns="http://www.w3.org/2000/svg">
<path d="M36.7624 0C35.4373 0.854076 33.6726 2.21998 32.043 4.28923C30.6363 6.07274 29.8356 7.74635 29.4022 8.78255C28.6329 10.6289 28.2813 12.2931 28.1117 13.5333C27.7349 13.9824 26.7301 15.2007 25.8384 16.4378C25.3265 17.1475 25.1758 17.4206 25.0596 17.7755C24.934 18.1617 24.9183 18.4474 24.6891 18.909C24.6232 19.0377 24.5698 19.1257 24.1899 19.6532C23.4582 20.6705 23.1128 21.1038 22.7455 21.8386C22.6732 21.983 22.4723 22.385 22.0358 22.6393C21.7689 22.7963 21.502 22.8434 21.3136 22.8591C20.9839 21.1886 20.0796 15.5147 23.2667 9.68372C25.6468 5.3317 29.1039 3.09604 30.4196 2.32674C32.9065 0.882347 35.2269 0.276319 36.7624 0Z" fill="white"/>
<path d="M25.3427 31.0231C25.3333 31.3308 25.4809 31.7233 28.0557 33.5539C29.5848 34.6403 30.6493 35.2966 31.1485 35.6263C31.1485 35.6263 33.5444 37.1994 35.6921 40.0976C39.7427 45.5643 38.3297 54.0297 38.427 54.0235C38.4459 54.0235 38.4427 53.7126 38.4427 53.7126C38.4679 53.1537 38.4867 51.8757 38.1601 50.2241C37.9655 49.2444 37.7205 48.4751 37.5541 48.0041C37.2904 47.2568 36.5996 45.3665 35.1018 43.5359C35.1018 43.5359 32.3417 40.1667 27.9646 38.9672C27.5313 38.8479 25.8514 38.4648 24.542 38.1854C24.0773 38.088 23.1981 37.9028 22.1022 37.5605C21.5527 37.3878 20.9687 37.1806 20.2905 36.8289C20.0173 36.6876 19.7598 36.5369 19.4961 36.3673C17.5022 35.0893 16.3655 33.3624 15.9039 32.6496C15.5868 32.1597 15.3576 31.7327 15.21 31.4407C13.505 28.0966 14.3716 26.4387 12.7922 23.71C11.9821 22.3096 11.106 21.6219 10.7261 21.3519C9.85631 20.7302 9.0242 20.4539 8.60031 20.3377C7.63633 20.0708 6.85761 20.0928 6.24217 20.1116C4.80092 20.1618 3.03626 20.2466 0.998413 20.3974C1.11459 20.3503 1.25588 20.2969 1.41287 20.2404C1.56673 20.1838 1.73631 20.1273 1.92157 20.0677C2.51189 19.8793 2.97346 19.7788 3.19326 19.7285C4.70045 19.3988 5.39439 19.2638 5.86225 19.1571C8.3554 18.5824 8.83896 18.1994 9.04306 18.0047C9.15924 17.8948 9.30995 17.7284 9.60511 17.474C9.72443 17.3704 10.2488 16.9182 10.9459 16.5006C11.8879 15.9323 12.5693 15.5241 13.5081 15.433C13.8755 15.3985 15.2948 15.3137 16.4157 16.262C17.5053 17.182 17.7502 18.6044 17.7785 18.7803C17.879 19.402 17.8193 19.9515 18.171 20.7773C18.284 21.0442 18.4379 21.3048 18.6545 21.5937C19.1569 22.2625 19.7284 22.5263 19.876 22.5922C20.5511 22.8874 21.7098 23.0726 22.2279 22.4854C22.2436 22.4697 22.253 22.4572 22.2561 22.4509C22.7397 21.8637 23.016 21.3519 23.1479 21.1039C23.4022 20.6329 23.6817 20.1776 23.9203 19.6971C25.2956 16.9371 26.8154 15.006 26.8154 15.006C26.8154 15.006 28.7056 12.6008 31.2836 10.8455C31.5473 10.6665 31.8174 10.4938 31.8174 10.4938C32.2727 10.2081 32.6934 9.97573 33.2492 9.67116C38.3611 6.86087 42.8795 5.9283 44.8828 5.59232C45.536 5.48242 46.5627 5.32856 47.8407 5.2218C44.6945 6.41814 42.6315 8.0635 41.4822 9.13737C40.0127 10.5095 39.0456 11.866 38.5432 12.5788C37.4819 14.086 36.8728 15.3137 36.2259 16.6325C34.4361 20.278 34.3733 21.6565 32.8441 23.8796C31.8896 25.2675 30.8126 26.3382 30.6775 26.4701C30.2317 26.9097 29.8831 27.2582 29.3587 27.6413C26.3224 29.8738 25.3647 30.2161 25.3427 31.0231Z" fill="#009D3D"/>
<path d="M29.6888 40.6316C33.0486 42.2832 34.6029 44.4906 35.2403 45.5551C35.9845 46.8017 36.3864 48.0231 36.6564 48.8426C37.3566 50.9716 37.5921 52.8304 37.6738 54.1272C36.2827 53.0659 34.1036 51.1286 32.3138 48.0671C30.5774 45.1029 29.9463 42.3397 29.6888 40.6316Z" fill="white"/>
<path d="M12.268 18.9214C12.7016 18.9214 13.053 18.57 13.053 18.1364C13.053 17.7029 12.7016 17.3514 12.268 17.3514C11.8345 17.3514 11.483 17.7029 11.483 18.1364C11.483 18.57 11.8345 18.9214 12.268 18.9214Z" fill="white"/>
<path d="M90.7761 21.912V28.1606C90.7761 30.616 90.2705 32.4184 89.2595 33.5676C88.2453 34.72 86.7789 35.2946 84.8572 35.2946C80.9134 35.2946 78.9383 32.9177 78.9383 28.1606V18.5271H72.7934V28.3898C72.7934 32.2834 73.8516 35.2821 75.9616 37.3796C78.0749 39.4802 81.0264 40.529 84.8195 40.529C88.6126 40.529 91.5642 39.4802 93.6774 37.3796C95.7906 35.2821 96.8457 32.2834 96.8457 28.3898V21.912H90.7761Z" fill="white"/>
<path d="M114.106 22.1694V40.3876H107.961V18.841H90.6472V13.8328H114.093V22.1694H114.106Z" fill="white"/>
<path d="M137.81 21.9119C137.828 23.9938 137.844 26.0755 137.863 28.1605C137.863 30.616 137.357 32.4183 136.346 33.5676C135.335 34.7199 133.866 35.2946 131.947 35.2946C128 35.2946 126.028 32.9176 126.028 28.1605C126.028 23.3846 126.028 18.6087 126.028 13.8328C123.981 13.8328 121.931 13.8328 119.883 13.8328C119.883 18.684 119.883 23.5385 119.883 28.3897C119.883 32.2833 120.938 35.282 123.049 37.3795C125.162 39.4802 128.113 40.5289 131.906 40.5289C135.703 40.5289 138.654 39.4802 140.764 37.3795C142.878 35.282 143.933 32.2833 143.933 28.3897C143.942 26.2294 143.948 24.0723 143.955 21.9119H137.81Z" fill="white"/>
<path d="M173.521 40.3876H166.921L161.799 32.9898H156.147V40.3876H150.002V28.1071H159.074V28.0977H161.156C163.002 28.0977 164.405 27.6927 165.366 26.8825C166.327 26.0724 166.808 24.9358 166.808 23.4694C166.808 21.9779 166.327 20.8318 165.366 20.0342C164.405 19.2398 163.002 18.841 161.156 18.841H159.074V18.8285H138.061V13.8328H161.498C163.85 13.8328 165.891 14.2253 167.624 15.0103C169.354 15.7921 170.689 16.9068 171.624 18.348C172.56 19.7893 173.028 21.4943 173.028 23.4694C173.028 25.4413 172.554 27.1432 171.605 28.5719C170.657 30.0006 169.31 31.0933 167.567 31.8531L173.521 40.3876Z" fill="white"/>
<path d="M178.824 21.9117C178.824 28.0693 178.824 34.2299 178.824 40.3874H184.972C184.972 34.2299 184.972 28.0693 184.972 21.9117C182.922 21.9117 180.875 21.9117 178.824 21.9117Z" fill="white"/>
<path d="M67.0003 28.8889V35.0338H57.1376C54.8234 35.0338 52.8264 34.6602 51.1465 33.9129V42.4599H44.9984V23.0077C44.9984 19.2146 46.0472 16.263 48.1478 14.1498C48.9988 13.2894 50.0004 12.6081 51.1465 12.1025C52.8264 11.3552 54.8234 10.9816 57.1376 10.9816H63.9294V17.0512H57.3668C54.9113 17.0512 53.109 17.5567 51.9598 18.5678C51.6426 18.8472 51.3726 19.1581 51.1465 19.5035C50.5342 20.4204 50.2328 21.5759 50.2328 22.97C50.2328 24.3799 50.5373 25.5385 51.1465 26.446C52.2361 28.0725 54.3116 28.8889 57.3668 28.8889H67.0003Z" fill="white"/>
<path d="M208.708 21.9119V28.1605C208.708 30.616 208.202 32.4183 207.191 33.5676C206.18 34.7199 204.71 35.2946 202.789 35.2946C198.845 35.2946 196.873 32.9176 196.873 28.1605C196.873 23.3846 196.873 18.6087 196.873 13.8328C194.826 13.8328 192.775 13.8328 190.728 13.8328C190.728 18.684 190.728 23.5385 190.728 28.3897C190.728 32.2833 191.783 35.282 193.893 37.3795C196.006 39.4802 198.958 40.5289 202.751 40.5289C206.547 40.5289 209.499 39.4802 211.609 37.3795C213.722 35.282 214.777 32.2833 214.777 28.3897V21.9119H208.708Z" fill="white"/>
<path d="M211.242 14.1215C210.322 15.0101 209.706 16.0494 209.706 16.0494C209.166 16.9632 208.887 17.8047 208.733 18.4013C210.827 18.3981 212.918 18.3981 215.013 18.395C215.176 18.1532 215.424 17.8267 215.788 17.5095C217.289 16.1939 219.252 16.2912 220.034 16.3289C220.935 16.3728 222.586 16.4828 223.861 17.5692C225.136 18.6588 225.802 20.4643 225.852 22.9857C225.915 19.2616 226.938 16.3791 228.929 14.335C226.847 12.2249 223.921 11.1448 220.143 11.0945C216.35 11.0412 213.383 12.0522 211.242 14.1215Z" fill="white"/>
<path d="M249.898 23.3969C249.898 28.3361 249.898 33.2753 249.902 38.2145C249.902 39.0999 249.902 39.9886 249.902 40.874C247.839 40.8646 245.772 40.8552 243.709 40.8426C243.709 39.0623 243.709 37.2788 243.709 35.4984C243.722 31.5138 243.738 27.526 243.75 23.5413C243.816 18.7842 241.876 16.3821 237.929 16.3288C236.01 16.3005 234.534 16.8563 233.508 17.993C232.657 18.935 232.148 20.3291 231.978 22.1754C231.825 18.8659 230.817 16.2628 228.958 14.3632C228.948 14.3537 228.939 14.3443 228.93 14.3349C228.996 14.2627 229.068 14.1904 229.14 14.1214C231.278 12.0521 234.246 11.041 238.039 11.0944C241.832 11.1447 244.771 12.2342 246.853 14.3632C248.938 16.4921 249.952 19.5002 249.898 23.3969Z" fill="white"/>
<path d="M231.978 23.3844C231.978 27.3439 231.978 31.3034 231.978 35.2598C231.978 35.3446 231.978 35.4325 231.978 35.5173C231.978 37.1438 231.978 38.7672 231.978 40.3937C229.943 40.3937 227.912 40.3937 225.877 40.3937C225.871 39.5679 225.861 38.742 225.855 37.9131C225.855 37.1093 225.855 36.3054 225.855 35.5016C225.855 31.5138 225.852 27.526 225.852 23.5382C225.855 23.3561 225.855 23.1803 225.852 23.0044C225.849 22.995 225.849 22.9887 225.852 22.9824C225.915 19.2584 226.938 16.3759 228.929 14.3318C228.939 14.3412 228.948 14.3506 228.957 14.3601C230.816 16.2597 231.824 18.8628 231.978 22.1723C231.978 22.5774 231.978 22.9793 231.978 23.3844Z" fill="white"/>
<path d="M181.898 16.128C184.956 16.128 187.434 13.6495 187.434 10.5922C187.434 7.53486 184.956 5.0564 181.898 5.0564C178.841 5.0564 176.363 7.53486 176.363 10.5922C176.363 13.6495 178.841 16.128 181.898 16.128Z" fill="#009D3D"/>
</svg>
