<svg width="11" height="10" viewBox="0 0 11 10" fill="none" xmlns="http://www.w3.org/2000/svg">
<path d="M5.3976 9.6707C6.58879 9.6707 7.62014 9.24346 8.46307 8.40054C9.30572 7.55775 9.73309 6.52654 9.73309 5.33521C9.73309 4.14429 9.30586 3.11295 8.46293 2.26988C7.62 1.42723 6.58866 1 5.3976 1C4.20626 1 3.17506 1.42723 2.33226 2.27002C1.48947 3.11281 1.0621 4.14415 1.0621 5.33521C1.0621 6.52654 1.48947 7.55788 2.33226 8.40067C3.17533 9.24333 4.20668 9.6707 5.3976 9.6707ZM3.07824 3.01586C3.72492 2.36917 4.48353 2.05483 5.3976 2.05483C6.31152 2.05483 7.07027 2.36917 7.71709 3.01586C8.36378 3.66268 8.67826 4.42142 8.67826 5.33521C8.67826 6.24927 8.36378 7.00788 7.71709 7.6547C7.07027 8.30152 6.31152 8.61587 5.3976 8.61587C4.48381 8.61587 3.7252 8.30138 3.07824 7.6547C2.43142 7.00802 2.11693 6.24927 2.11693 5.33521C2.11693 4.42142 2.43142 3.66268 3.07824 3.01586Z" fill="#00B15D" stroke="#00B15D" stroke-width="0.6"/>
</svg>
