<svg width="27" height="27" viewBox="0 0 27 27" fill="none" xmlns="http://www.w3.org/2000/svg">
<g clip-path="url(#clip0_1_5447)">
<path d="M25.2103 26.1125L23.1582 6.57057C23.1151 6.16146 22.7703 5.85083 22.3589 5.85083H18.5019V4.97144C18.5019 2.23029 16.2716 0 13.5305 0C10.7891 0 8.55881 2.23029 8.55881 4.97144V5.85083H4.70179C4.29042 5.85083 3.94559 6.16146 3.90254 6.57057L1.85043 26.1125C1.82674 26.3389 1.90028 26.5649 2.05251 26.7342C2.20495 26.9033 2.42206 26.9999 2.64969 26.9999H24.4108C24.6386 26.9999 24.8558 26.9033 25.008 26.7342C25.1606 26.5649 25.234 26.3389 25.2103 26.1125ZM10.166 4.97144C10.166 3.11647 11.6753 1.60716 13.5305 1.60716C15.3854 1.60716 16.8947 3.11647 16.8947 4.97144V5.85083H10.166V4.97144ZM3.54205 25.3928L5.42545 7.45798H8.55881V9.22891C8.55881 9.67262 8.91868 10.0325 9.36239 10.0325C9.8061 10.0325 10.166 9.67262 10.166 9.22891V7.45798H16.8947V9.22891C16.8947 9.67262 17.2546 10.0325 17.6983 10.0325C18.142 10.0325 18.5019 9.67262 18.5019 9.22891V7.45798H21.6353L23.5187 25.3928H3.54205Z" fill="white"/>
</g>
<defs>
<clipPath id="clip0_1_5447">
<rect width="27" height="27" fill="white"/>
</clipPath>
</defs>
</svg>
