<svg width="29" height="29" viewBox="0 0 29 29" fill="none" xmlns="http://www.w3.org/2000/svg">
<path d="M28.5153 0.415942C28.3877 0.297822 28.2062 0.270417 28.0523 0.345757L0.247909 13.9822C0.0982191 14.0556 0.00182495 14.2133 2.55885e-05 14.3875C-0.00177377 14.5617 0.0914501 14.7215 0.239683 14.7983L8.10827 18.8744C8.25257 18.9492 8.42462 18.9323 8.55349 18.8306L16.2039 12.7949L10.198 19.3159C10.1123 19.409 10.0686 19.5364 10.0781 19.6658L10.676 27.8861C10.6893 28.0683 10.805 28.224 10.9694 28.2811C11.0134 28.2963 11.0585 28.3037 11.1032 28.3037C11.2256 28.3037 11.3447 28.2483 11.4276 28.147L15.604 23.0385L20.7668 25.6424C20.8789 25.6989 21.0086 25.7013 21.1225 25.649C21.2364 25.5966 21.3231 25.4948 21.3603 25.3698L28.6415 0.891406C28.6924 0.720467 28.6428 0.534062 28.5153 0.415942Z" fill="#00B15D"/>
</svg>
