<svg width="38" height="38" viewBox="0 0 38 38" fill="none" xmlns="http://www.w3.org/2000/svg">
<circle cx="19" cy="19" r="19" fill="#00B15D"/>
<g clip-path="url(#clip0_1_5301)">
<path d="M20.2988 9C14.2681 9.00092 11.0625 12.8647 11.0625 17.0777C11.0625 19.0311 12.1543 21.4685 13.9023 22.2413C14.401 22.4658 14.335 22.1918 14.764 20.5509C14.7979 20.4143 14.7805 20.2961 14.6705 20.1687C12.1717 17.2784 14.1828 11.3366 19.9423 11.3366C28.2775 11.3366 26.7201 22.8701 21.3924 22.8701C20.0192 22.8701 18.9963 21.7921 19.3198 20.4583C19.7122 18.8698 20.4803 17.162 20.4803 16.0171C20.4803 13.1314 16.1812 13.5595 16.1812 17.3829C16.1812 18.5645 16.5992 19.362 16.5992 19.362C16.5992 19.362 15.2159 24.95 14.9592 25.9941C14.5247 27.7614 15.0179 30.6223 15.061 30.8689C15.0876 31.0046 15.2397 31.0477 15.325 30.9358C15.4616 30.7571 17.1336 28.3719 17.602 26.6477C17.7725 26.0198 18.4719 23.4714 18.4719 23.4714C18.933 24.3038 20.2622 25.0004 21.6784 25.0004C25.8914 25.0004 28.9366 21.2971 28.9366 16.7018C28.9219 12.2963 25.1517 9 20.2988 9V9Z" fill="white"/>
</g>
<defs>
<clipPath id="clip0_1_5301">
<rect width="22" height="22" fill="white" transform="translate(9 9)"/>
</clipPath>
</defs>
</svg>
