<svg width="22" height="22" viewBox="0 0 22 22" fill="none" xmlns="http://www.w3.org/2000/svg">
<path d="M19.3333 3.51667H19.15V2C19.15 1.36582 18.6342 0.85 18 0.85H17.3333C16.6992 0.85 16.1833 1.36582 16.1833 2V3.51667H5.81667V2C5.81667 1.36582 5.30084 0.85 4.66667 0.85H4C3.36582 0.85 2.85 1.36582 2.85 2V3.51667H2.66667C1.66482 3.51667 0.85 4.33149 0.85 5.33333V19.3333C0.85 20.3352 1.66482 21.15 2.66667 21.15H19.3333C20.3352 21.15 21.15 20.3352 21.15 19.3333V5.33333C21.15 4.33149 20.3352 3.51667 19.3333 3.51667ZM17.15 4V2C17.15 1.89884 17.2322 1.81667 17.3333 1.81667H18C18.1012 1.81667 18.1833 1.89884 18.1833 2V4V5.33333C18.1833 5.43449 18.1012 5.51667 18 5.51667H17.3333C17.2322 5.51667 17.15 5.43449 17.15 5.33333V4ZM3.81667 4V2C3.81667 1.89884 3.89884 1.81667 4 1.81667H4.66667C4.76782 1.81667 4.85 1.89884 4.85 2V4V5.33333C4.85 5.43449 4.76782 5.51667 4.66667 5.51667H4C3.89884 5.51667 3.81667 5.43449 3.81667 5.33333V4ZM20.1833 19.3333C20.1833 19.8018 19.8018 20.1833 19.3333 20.1833H2.66667C2.19818 20.1833 1.81667 19.8018 1.81667 19.3333V9.81667H20.1833V19.3333ZM20.1833 8.85H1.81667V5.33333C1.81667 4.86484 2.19818 4.48333 2.66667 4.48333H2.85V5.33333C2.85 5.96751 3.36582 6.48333 4 6.48333H4.66667C5.30084 6.48333 5.81667 5.96751 5.81667 5.33333V4.48333H16.1833V5.33333C16.1833 5.96751 16.6992 6.48333 17.3333 6.48333H18C18.6342 6.48333 19.15 5.96751 19.15 5.33333V4.48333H19.3333C19.8018 4.48333 20.1833 4.86484 20.1833 5.33333V8.85Z" fill="white" stroke="white" stroke-width="0.3"/>
</svg>
