<svg width="18" height="18" viewBox="0 0 18 18" fill="none" xmlns="http://www.w3.org/2000/svg">
<path d="M12.2126 10.6234L12.1637 10.6925L12.2238 10.7521L17.1357 15.6274L17.1356 15.6274L17.1375 15.6292C17.1542 15.6449 17.1693 15.66 17.185 15.6766L17.1852 15.6769C17.6856 16.2042 17.6644 17.0375 17.1373 17.5377L17.1372 17.5378C16.61 18.0387 15.7767 18.0175 15.2759 17.4903L15.2759 17.4903L15.2739 17.4883L10.283 12.5273L10.2282 12.4728L10.1616 12.5121C7.8986 13.8486 5.06192 13.7316 2.91635 12.2126L2.91635 12.2126C-0.0901844 10.0843 -0.801641 5.92238 1.32663 2.91635L1.32663 2.91635C3.4549 -0.0901825 7.61736 -0.801642 10.6234 1.32663C13.6294 3.45491 14.3414 7.61737 12.2126 10.6234ZM6.76239 2.41311C9.17033 2.41208 11.124 4.36218 11.1287 6.77013L6.76548 11.1437C4.35444 11.1442 2.39969 9.19098 2.39814 6.77994C2.39763 4.36889 4.35083 2.41415 6.76239 2.41311ZM6.76551 11.2437H6.76858L6.76875 11.2437C9.23602 11.2394 11.2329 9.23679 11.2287 6.76996V6.76994C11.2239 4.30685 9.22549 2.31206 6.76234 2.31311C4.29556 2.31417 2.29762 4.31369 2.29814 6.77996V6.78C2.29973 9.24625 4.29924 11.2442 6.76548 11.2437H6.76551Z" fill="#00B15D" stroke="#F4F4F4" stroke-width="0.2"/>
</svg>
