<svg width="38" height="38" viewBox="0 0 38 38" fill="none" xmlns="http://www.w3.org/2000/svg">
<circle cx="19" cy="19" r="19" fill="#00B15D"/>
<g clip-path="url(#clip0_1_5291)">
<path d="M30 13.1786C29.1819 13.5375 28.3101 13.7754 27.4012 13.8909C28.3363 13.3326 29.0499 12.4554 29.3854 11.398C28.5136 11.9177 27.5511 12.2849 26.5254 12.4898C25.6976 11.6084 24.5179 11.0625 23.2309 11.0625C20.7339 11.0625 18.7236 13.0893 18.7236 15.5739C18.7236 15.9314 18.7539 16.2751 18.8281 16.6024C15.0785 16.4195 11.7606 14.6224 9.53175 11.8848C9.14262 12.5599 8.91438 13.3326 8.91438 14.1645C8.91438 15.7265 9.71875 17.1111 10.9177 17.9127C10.1931 17.899 9.48225 17.6886 8.88 17.3573C8.88 17.371 8.88 17.3889 8.88 17.4067C8.88 19.5985 10.4434 21.419 12.4935 21.8384C12.1264 21.9388 11.7262 21.9869 11.311 21.9869C11.0222 21.9869 10.7307 21.9704 10.4571 21.9099C11.0415 23.696 12.6998 25.0091 14.6715 25.0518C13.137 26.2521 11.1886 26.9754 9.07938 26.9754C8.7095 26.9754 8.35475 26.9589 8 26.9135C9.99787 28.2019 12.3656 28.9375 14.919 28.9375C23.2185 28.9375 27.756 22.0625 27.756 16.1033C27.756 15.9039 27.7491 15.7114 27.7395 15.5203C28.6346 14.885 29.3867 14.0916 30 13.1786Z" fill="white"/>
</g>
<defs>
<clipPath id="clip0_1_5291">
<rect width="22" height="22" fill="white" transform="translate(8 9)"/>
</clipPath>
</defs>
</svg>
