<svg width="38" height="38" viewBox="0 0 38 38" fill="none" xmlns="http://www.w3.org/2000/svg">
<circle cx="19" cy="19" r="19" fill="#00B15D"/>
<path d="M30.7236 13.6419C30.4535 12.6378 29.6619 11.8463 28.6579 11.5759C26.8239 11.0741 19.4875 11.0741 19.4875 11.0741C19.4875 11.0741 12.1514 11.0741 10.3174 11.5569C9.33273 11.827 8.52178 12.6379 8.2517 13.6419C7.76904 15.4758 7.76904 19.2791 7.76904 19.2791C7.76904 19.2791 7.76904 23.1016 8.2517 24.9163C8.52206 25.9202 9.31342 26.7117 10.3175 26.9821C12.1707 27.4841 19.4878 27.4841 19.4878 27.4841C19.4878 27.4841 26.8239 27.4841 28.6579 27.0013C29.662 26.731 30.4535 25.9395 30.7239 24.9356C31.2064 23.1016 31.2064 19.2984 31.2064 19.2984C31.2064 19.2984 31.2257 15.4758 30.7236 13.6419ZM17.1518 22.7927V15.7655L23.2523 19.2791L17.1518 22.7927Z" fill="white"/>
</svg>
