<svg width="19" height="19" viewBox="0 0 19 19" fill="none" xmlns="http://www.w3.org/2000/svg">
<path d="M4.88526 1.21343C3.698 1.34449 2.64421 1.96679 1.94443 2.96555L4.80662 1.3237M4.88526 1.21343L4.78748 1.23438L4.80662 1.3237M4.88526 1.21343L5.64337 4.75133L4.88526 1.21343ZM4.80662 1.3237C3.68483 1.47234 2.69206 2.07277 2.02632 3.02293L2.02632 3.02293C1.25807 4.11938 1.07918 5.46657 1.53498 6.7213C3.35443 11.73 7.27044 15.646 12.2791 17.4654C13.5338 17.9212 14.881 17.7424 15.9775 16.9741C16.9277 16.3084 17.5281 15.3156 17.6767 14.1938L14.2813 13.4662L12.6568 15.0908C12.45 15.2975 12.1359 15.3525 11.8713 15.2281C8.31787 13.5588 5.44166 10.6826 3.77228 7.12916L3.86279 7.08664L3.77228 7.12915C3.64798 6.86455 3.70286 6.55037 3.90965 6.34363L5.5342 4.71908L4.80662 1.3237ZM-0.0421912 4.56319L0.0567503 4.5777L-0.0421914 4.56319C-0.172545 5.45203 -0.0804603 6.3378 0.2309 7.19499L0.324892 7.16085L0.230901 7.19499C1.18755 9.82855 2.74552 12.2727 4.73662 14.2638C6.72773 16.2549 9.17187 17.8128 11.8054 18.7695C12.4107 18.9894 13.0304 19.1 13.6557 19.1C13.9155 19.1 14.1764 19.0809 14.4371 19.0426C15.2697 18.9205 16.0775 18.5981 16.7736 18.1103C17.4728 17.6204 18.0544 16.9673 18.4556 16.2213C18.8834 15.4257 19.1003 14.5571 19.1003 13.6407C19.1003 13.3136 18.8719 13.0309 18.552 12.9624L18.531 13.0601L18.552 12.9624L14.203 12.0304L14.203 12.0304C13.9729 11.9812 13.7335 12.0518 13.5671 12.2182L12.0259 13.7594C9.10926 12.2752 6.72511 9.89109 5.24093 6.97443L6.78212 5.43328L6.78213 5.43327C6.94849 5.26687 7.01921 5.02746 6.96991 4.79736L6.87213 4.81831L6.96991 4.79735L6.03798 0.44835L6.03798 0.448345C5.96943 0.128535 5.68674 -0.1 5.35965 -0.1C4.44329 -0.1 3.57473 0.1169 2.77912 0.544726L2.82648 0.6328L2.77912 0.544727C2.03304 0.945936 1.37995 1.52751 0.890044 2.22672L0.971941 2.2841L0.890043 2.22672C0.402284 2.92287 0.0799171 3.73063 -0.0421912 4.56319Z" fill="white" stroke="white" stroke-width="0.2"/>
<path d="M17.713 9.49961C17.713 9.88272 18.0236 10.1933 18.4067 10.1933C18.7899 10.1933 19.1004 9.88272 19.1004 9.49961C19.1004 6.93562 18.1018 4.52463 16.2888 2.71164C14.4758 0.898643 12.0648 -0.1 9.50083 -0.1C9.11772 -0.1 8.8071 0.210612 8.8071 0.593726C8.8071 0.976839 9.11772 1.28745 9.50083 1.28745C14.0289 1.28745 17.713 4.9715 17.713 9.49961Z" fill="white" stroke="white" stroke-width="0.2"/>
<path d="M15.3381 9.49971C15.3381 9.88282 15.6487 10.1934 16.0318 10.1934C16.415 10.1934 16.7255 9.88282 16.7255 9.49971C16.7255 5.51591 13.4846 2.275 9.50083 2.275C9.11772 2.275 8.8071 2.58561 8.8071 2.96873C8.8071 3.35184 9.11772 3.66245 9.50083 3.66245C12.7194 3.66245 15.3381 6.28113 15.3381 9.49971Z" fill="white" stroke="white" stroke-width="0.2"/>
<path d="M12.9632 9.4998C12.9632 9.88292 13.2738 10.1935 13.6569 10.1935C14.0401 10.1935 14.3506 9.88291 14.3506 9.4998C14.3506 6.8255 12.1751 4.65 9.50083 4.65C9.11772 4.65 8.8071 4.96061 8.8071 5.34373C8.8071 5.72684 9.11772 6.03745 9.50083 6.03745C11.4099 6.03745 12.9632 7.59073 12.9632 9.4998Z" fill="white" stroke="white" stroke-width="0.2"/>
</svg>
